<svg aria-hidden="true" style="position:absolute;width:0;height:0;overflow:hidden" xmlns="http://www.w3.org/2000/svg"><defs><symbol id="antenna" viewBox="0 0 32 32"><path d="m30.773 22.098-8.443-8.505.937-4.615c.242.094.499.144.758.146h.006a2.159 2.159 0 1 0-2.008-1.435l-4.96.605L8.972.161a.534.534 0 0 0-.377-.16.532.532 0 0 0-.373.155L6.709 1.66a.534.534 0 0 0 0 .754l.814.826a14.943 14.943 0 0 0 2.519 17.663.513.513 0 0 0 .146.098c-.034.18-.051.364-.052.547v6.187h-6.4a2.67 2.67 0 0 0-2.667 2.667v1.067c0 .295.239.533.533.533h24.533a.533.533 0 0 0 .533-.533v-1.067a2.67 2.67 0 0 0-2.667-2.667h-6.4v-2.742a15.09 15.09 0 0 0 3.049.32 14.854 14.854 0 0 0 7.04-1.783l.818.823a.534.534 0 0 0 .377.16.532.532 0 0 0 .373-.155l1.513-1.504a.534.534 0 0 0 0-.754zM23.28 6.233a1.066 1.066 0 1 1 .752 1.822h-.003a1.067 1.067 0 0 1-.747-1.823h-.002zm-1.256 3.505-.598 2.946-1.175-1.182 1.774-1.763zm-.605-.902-1.92 1.909-1.485-1.493 3.405-.415zM24.004 28.8a1.6 1.6 0 0 1 1.6 1.6v.533H2.137V30.4a1.6 1.6 0 0 1 1.6-1.6h20.267zm-7.467-2.133v1.067h-5.333v-1.067h5.333zM11.204 25.6v-4.053c0-1.294 1.196-2.347 2.667-2.347s2.667 1.053 2.667 2.347V25.6h-5.333zm6.4-1.696v-2.357c0-1.882-1.675-3.413-3.733-3.413a3.8 3.8 0 0 0-3.281 1.786A13.87 13.87 0 0 1 8.311 4.033l18.602 18.708a13.818 13.818 0 0 1-9.309 1.163zm11.289-.684L7.836 2.039l.755-.752 7.935 7.98c.004 0 .006.007.01.01l13.115 13.191-.757.752z"/><path  d="M13.876 20.267h-.005a1.6 1.6 0 1 0-.004 3.2h.005a1.6 1.6 0 1 0 .004-3.2zm.373 1.978a.534.534 0 0 1-.752-.756.534.534 0 0 1 .373-.155.532.532 0 0 1 .373.911h.005z"/></symbol><symbol id="astronaut" viewBox="0 0 34 32"><path  d="M34.434 4.774a.565.565 0 0 0-.464-.355l-2.057-.272-.921-1.693c-.193-.357-.837-.357-1.03 0l-.921 1.693-2.057.272a.563.563 0 0 0-.464.355.49.49 0 0 0 .145.535l1.489 1.318-.351 1.862a.501.501 0 0 0 .228.51.62.62 0 0 0 .605.04l1.84-.879 1.84.879a.624.624 0 0 0 .606-.04.5.5 0 0 0 .228-.51l-.351-1.861 1.489-1.318a.491.491 0 0 0 .145-.535zm-2.653 1.298a.493.493 0 0 0-.165.462l.206 1.09-1.077-.514a.624.624 0 0 0-.536 0l-1.078.514.206-1.09a.494.494 0 0 0-.165-.462L28.3 5.3l1.205-.159a.575.575 0 0 0 .433-.285l.539-.991.539.991a.571.571 0 0 0 .433.285l1.205.159-.871.772zM28.144 20.424h-1.149v1.043h1.149v-1.043zM28.144 22.511h-1.149v1.043h1.149v-1.043zM29.293 21.467h-1.149v1.043h1.149v-1.043zM26.995 21.467h-1.149v1.043h1.149v-1.043zM24.123 26.163h-1.149v1.043h1.149v-1.043zM24.123 28.249h-1.149v1.043h1.149v-1.043z"/><path  d="M25.272 27.206h-1.149v1.044h1.149v-1.044zM22.974 27.206h-1.149v1.044h1.149v-1.044zM17.231 24.076h-1.149v1.044h1.149v-1.044zM17.231 26.163h-1.149v1.043h1.149v-1.043z"/><path  d="M18.38 25.119h-1.149v1.044h1.149v-1.044zM16.082 25.119h-1.149v1.044h1.149v-1.044zM6.318 6.337H5.169V7.38h1.149V6.337zM6.318 8.424H5.169v1.043h1.149V8.424zM7.466 7.381H6.317v1.043h1.149V7.381zM5.169 7.381H4.02v1.043h1.149V7.381z"/><path  d="M26.616 14.2a1.954 1.954 0 0 0-1.28-.689 2.06 2.06 0 0 0-1.443.344l-1.349.939L20.5 16.18l-1.462-.529c2.608-1.063 4.43-3.432 4.43-6.182 0-3.74-3.363-6.782-7.497-6.782S8.474 5.73 8.474 9.469c0 1.355.446 2.616 1.206 3.677l-2.976-.023h-.005c-.009 0-.017.004-.025.005a.63.63 0 0 0-.167.03c-.014.005-.028.007-.041.013l-.021.006-3.482 1.562-.001.001-2.039.891a.616.616 0 0 0-.068.034c-.813.491-1.09 1.457-.644 2.245a1.88 1.88 0 0 0 1.137.87c.191.054.387.081.581.081.312 0 .621-.069.904-.207l1.495-.722 2.438-1.144 1.461-.008-5.86 5.298-.002.001-1.442 1.304c-.341.308-.528.716-.528 1.152s.187.845.528 1.153c.35.316.81.475 1.27.475s.92-.159 1.271-.475l1.415-1.28 1.875-1.271.97.878-1.897 1.716-.002.001-1.442 1.304c-.341.308-.528.716-.528 1.152s.187.845.528 1.153c.35.316.81.475 1.271.475s.921-.159 1.271-.475l3.749-3.391.001-.002 1.087-.978-.004-.004c.007-.006.017-.008.024-.015l5.563-5.535 3.738.483a.603.603 0 0 0 .283-.033c.019-.006.036-.015.053-.023.021-.009.043-.015.062-.027l3.461-2.087c.013-.008.02-.02.032-.029.014-.01.031-.014.044-.025l1.369-1.165c.712-.606.811-1.6.228-2.31zM2.294 17.732a.838.838 0 0 1-.601.051.761.761 0 0 1-.46-.35c-.173-.307-.073-.68.231-.882l1.415-.618.484 1.284-1.068.516zm3.766-1.788-1.667.783-.473-1.255 2.183-.979-.043 1.451zm16.261-6.476c0 .898-.236 1.746-.645 2.504l-4.503-1.858c-.047-.561-.368-1.052-.849-1.358l1.577-4.754c2.561.74 4.42 2.91 4.42 5.466zm-12.695 0c0-3.164 2.848-5.739 6.348-5.739.272 0 .539.021.802.051l-1.542 4.65c-.021-.001-.04-.006-.062-.006-1.112 0-2.017.819-2.017 1.826s.905 1.826 2.017 1.826c.748 0 1.394-.375 1.743-.924l4.16 1.716c-1.157 1.415-3.01 2.338-5.101 2.338-3.5 0-6.348-2.575-6.348-5.739zm6.414.782c0 .431-.389.783-.868.783s-.868-.351-.868-.783c0-.431.389-.783.868-.783s.868.351.868.783zM2.654 24.947a.703.703 0 0 1-.92.001c-.122-.111-.19-.258-.19-.414s.067-.302.19-.412l1.036-.938.917.829-1.033.934zm3.462 3.652a.703.703 0 0 1-.921.001c-.122-.111-.19-.258-.19-.414s.067-.302.19-.412l1.037-.938.917.829-1.033.934zm3.749-3.393-.002.001-1.901 1.722-.917-.829 1.899-1.717.002-.001c.043-.039.07-.086.097-.132.007-.014.022-.025.028-.039.018-.04.021-.083.028-.126.003-.024.015-.046.015-.071 0-.035-.014-.069-.022-.103-.007-.031-.007-.063-.02-.093a.54.54 0 0 0-.098-.135c-.011-.012-.015-.026-.027-.037h-.001l-.001-.002-1.731-1.565c-.018-.017-.042-.023-.063-.038a.555.555 0 0 0-.094-.056c-.033-.015-.066-.023-.1-.032a.585.585 0 0 0-.111-.019.593.593 0 0 0-.103.005.612.612 0 0 0-.112.02c-.036.01-.068.027-.102.044-.021.011-.045.015-.066.028l-1.91 1.295-.97-.878 2.584-2.334 4.696 4.195-.999.899zm7.343-6.864c-.017-.002-.032.004-.049.003a.645.645 0 0 0-.323.074.587.587 0 0 0-.09.06c-.014.011-.03.016-.043.029l-5.06 5.034-4.661-4.164 3.051-2.757a.489.489 0 0 0 .002-.738.608.608 0 0 0-.411-.153v-.001l-2.389.013.03-1.572 3.343.026c1.362 1.266 3.262 2.055 5.365 2.055.471 0 .93-.044 1.378-.12.043.031.085.063.14.083l2.595.939.356 1.608-3.234-.418zm4.352.174-.337-1.524 1.558-1.056 1.02 1.229-2.24 1.351zm4.043-2.769-.902.768-1.003-1.209.895-.623a.851.851 0 0 1 .585-.14.792.792 0 0 1 .517.278.653.653 0 0 1-.092.927z"/><path d="m14.648 18.489-2.308-2.087a.615.615 0 0 0-.81 0l-2.307 2.087c-.108.099-.169.231-.169.37s.06.272.169.37l2.307 2.087c.112.101.259.152.406.152s.293-.051.405-.152l2.308-2.087c.108-.098.169-.231.169-.37s-.061-.272-.169-.37zm-2.712 1.72-1.493-1.351 1.493-1.351 1.494 1.351-1.494 1.351zM18.485 5.309l-.277 1.013c.076.017 1.871.442 1.871 2.102h1.149c0-1.973-1.794-2.901-2.743-3.115zM21.227 9.468h-1.149v1.043h1.149V9.468z"/></symbol><symbol id="clock" viewBox="0 0 32 32"><path  d="M31.297 15.301C31.295 6.849 24.442-.002 15.989 0S.686 6.855.688 15.308a15.304 15.304 0 0 0 10.649 14.576.662.662 0 0 0 .529-.065.637.637 0 0 0 .283-.356l3.865-12.25a1.912 1.912 0 1 0-.84-3.635l-5.106-5.107a.637.637 0 0 0-.902.902l5.103 5.109a1.876 1.876 0 0 0 .536 2.309l-3.683 11.673C3.844 25.783.118 17.71 2.799 10.432S13.553-.572 20.831 2.109s11.004 10.754 8.323 18.032a14.042 14.042 0 0 1-7.462 7.973l-.398-1.874a.638.638 0 0 0-1.048-.344l-3.837 3.426a.637.637 0 0 0 .231 1.084l4.899 1.563a.638.638 0 0 0 .819-.74l-.391-1.839a15.255 15.255 0 0 0 9.329-14.089zm-15.305-.637a.638.638 0 1 1 0 1.277.638.638 0 0 1 0-1.277zm2.101 14.864 2.184-1.948.603 2.84-2.787-.892z"/><path  d="M15.354 3.185V4.46a.638.638 0 1 0 1.276 0V3.185a.638.638 0 0 0-1.276 0zM3.876 14.664a.638.638 0 0 0 0 1.276h1.275a.638.638 0 1 0 0-1.276H3.876zM28.108 15.939a.638.638 0 1 0 0-1.276h-1.275a.638.638 0 0 0 0 1.276h1.275z"/></symbol><symbol id="diagram" viewBox="0 0 32 32"><path  d="M14.926 14.965h1.066v4.798h-1.066v-4.797zM19.19 17.097h1.066v2.665H19.19v-2.665zM10.661 18.696h1.066v1.066h-1.066v-1.066zM7.463 18.163h1.066v1.599H7.463v-1.599z"/><path  d="M1.599 28.291h25.587a1.6 1.6 0 0 0 1.599-1.599V24.56a1.6 1.6 0 0 0-1.599-1.599h-.533V9.668L29.681 6.8a1.608 1.608 0 1 0-.746-.763L26.654 8.2V6.97a1.6 1.6 0 0 0-1.599-1.599H3.733A1.6 1.6 0 0 0 2.134 6.97v15.992h-.533a1.6 1.6 0 0 0-1.599 1.599v2.132a1.6 1.6 0 0 0 1.599 1.599zM30.384 4.837a.533.533 0 1 1 0 1.067.533.533 0 0 1 0-1.067zM3.198 6.969c0-.294.239-.533.533-.533h21.322c.294 0 .533.239.533.533v2.239l-1.066 1.013V8.035a.533.533 0 0 0-.533-.533H4.797a.533.533 0 0 0-.533.533v13.326c0 .294.239.533.533.533h19.19a.533.533 0 0 0 .533-.533v-9.674l1.066-1.01v12.284H3.198V6.969zm4.798 6.93a1.598 1.598 0 1 0 1.107 2.749l1.853.93a.532.532 0 0 0 .636-.123l3.939-4.431 3.872 2.901a.533.533 0 0 0 .686-.039l3.365-3.188v8.131H5.33V8.569h18.124v2.66l-3.771 3.572-3.904-2.927a.533.533 0 0 0-.718.072l-3.993 4.493-1.493-.746c.011-.064.018-.129.02-.193a1.6 1.6 0 0 0-1.599-1.599zm.533 1.599a.533.533 0 1 1-1.067 0 .533.533 0 0 1 1.067 0zm3.198 8.529h5.331v.533a.533.533 0 0 1-.533.533h-4.264a.533.533 0 0 1-.533-.533v-.533zm-10.661.533c0-.294.239-.533.533-.533h9.062v.533a1.6 1.6 0 0 0 1.599 1.599h4.264a1.6 1.6 0 0 0 1.599-1.599v-.533h9.062c.294 0 .533.239.533.533v2.132a.533.533 0 0 1-.533.533H1.598a.533.533 0 0 1-.533-.533V24.56z"/></symbol><symbol id="mail" viewBox="0 0 43 32"><path  d="M38.667 0H4C1.794 0 0 1.794 0 4v24c0 2.206 1.794 4 4 4h34.667c2.206 0 4-1.794 4-4V4c0-2.206-1.794-4-4-4zm0 2.667c.181 0 .353.038.511.103L21.334 18.236 3.49 2.77a1.32 1.32 0 0 1 .511-.103h34.667zm0 26.666H4A1.334 1.334 0 0 1 2.667 28V5.587L20.46 21.008a1.335 1.335 0 0 0 1.748 0L40.001 5.587V28c0 .736-.598 1.333-1.333 1.333z"/></symbol><symbol id="facebook" viewBox="0 0 32 32"><path  d="M21.329 5.313h2.921V.225C23.746.156 22.013 0 19.994 0c-4.212 0-7.097 2.649-7.097 7.519V12H8.249v5.688h4.648V32h5.699V17.689h4.46l.708-5.688h-5.169V8.082c.001-1.644.444-2.769 2.735-2.769z"/></symbol><symbol id="instagram" viewBox="0 0 32 32"><path  d="M31.969 9.408c-.075-1.7-.35-2.869-.744-3.882a7.806 7.806 0 0 0-1.851-2.838A7.867 7.867 0 0 0 26.542.844C25.523.45 24.36.175 22.66.1 20.947.019 20.403 0 16.059 0s-4.888.019-6.595.094c-1.7.075-2.869.35-3.882.744a7.803 7.803 0 0 0-2.838 1.85A7.867 7.867 0 0 0 .9 5.52C.506 6.539.231 7.702.156 9.402c-.081 1.713-.1 2.257-.1 6.601s.019 4.888.094 6.595c.075 1.7.35 2.869.744 3.882a7.895 7.895 0 0 0 1.85 2.838 7.867 7.867 0 0 0 2.832 1.844c1.019.394 2.182.669 3.882.744 1.706.075 2.25.094 6.595.094s4.888-.019 6.595-.094c1.7-.075 2.869-.35 3.882-.744a8.184 8.184 0 0 0 4.682-4.682c.394-1.019.669-2.182.744-3.882.075-1.707.094-2.251.094-6.595s-.006-4.888-.081-6.595zm-2.882 13.065c-.069 1.563-.331 2.407-.55 2.969a5.31 5.31 0 0 1-3.038 3.038c-.563.219-1.413.481-2.969.55-1.688.075-2.194.094-6.464.094s-4.782-.019-6.464-.094c-1.563-.069-2.407-.331-2.969-.55a4.926 4.926 0 0 1-1.838-1.194 4.974 4.974 0 0 1-1.194-1.838c-.219-.563-.481-1.413-.55-2.969-.075-1.688-.094-2.194-.094-6.464s.019-4.782.094-6.464c.069-1.563.331-2.407.55-2.969a4.868 4.868 0 0 1 1.2-1.838A4.974 4.974 0 0 1 6.639 3.55c.563-.219 1.413-.481 2.969-.55 1.688-.075 2.194-.094 6.464-.094 4.276 0 4.782.019 6.464.094 1.563.069 2.407.331 2.969.55a4.914 4.914 0 0 1 1.838 1.194 4.974 4.974 0 0 1 1.194 1.838c.219.563.481 1.413.55 2.969.075 1.688.094 2.194.094 6.464s-.019 4.77-.094 6.458z"/><path  d="M16.059 7.783c-4.538 0-8.22 3.682-8.22 8.22s3.682 8.22 8.22 8.22c4.539 0 8.22-3.682 8.22-8.22s-3.682-8.22-8.22-8.22zm0 13.552a5.333 5.333 0 0 1 0-10.664 5.333 5.333 0 0 1 0 10.664zM26.524 7.458a1.919 1.919 0 1 1-3.838 0 1.919 1.919 0 0 1 3.838 0z"/></symbol><symbol id="linkedin" viewBox="0 0 32 32"><path  d="M31.992 32v-.001H32V20.263c0-5.741-1.236-10.164-7.948-10.164-3.227 0-5.392 1.771-6.276 3.449h-.093v-2.913h-6.364v21.364h6.627V21.42c0-2.785.528-5.479 3.977-5.479 3.399 0 3.449 3.179 3.449 5.657v10.401h6.62zM.528 10.636h6.635V32H.528V10.636zM3.843 0C1.722 0 0 1.721 0 3.843s1.721 3.879 3.843 3.879c2.121 0 3.843-1.757 3.843-3.879A3.846 3.846 0 0 0 3.843 0z"/></symbol><symbol id="Logo1" viewBox="0 0 57 32"><path  d="M26.727 3.165c.123 0 .255.011.386.022l.039.003c.636.045 1.268.14 1.889.285V1.948a11.38 11.38 0 0 0-1.95-.311 15.84 15.84 0 0 0-.788-.038h-.228a15.9 15.9 0 0 0-3.913.504 15.868 15.868 0 0 0-4.151 1.688v15.145a16.858 16.858 0 0 1 3.957-1.542 17.273 17.273 0 0 1 3.322-.51h.045c.188-.009.375-.015.568-.016v-1.551a18.28 18.28 0 0 0-4.317.574c-.522.136-1.027.282-1.5.445l-.54.183V4.71l.231-.111a15.078 15.078 0 0 1 5.609-1.431.4.4 0 0 1 .049 0c.215-.011.43-.016.642-.016h.243c.112.003.224.005.336.012h.073zm2.688 1.561c.339.026.689.038 1.044.038a16.75 16.75 0 0 0 4.114-.528 16.958 16.958 0 0 0 3.956-1.543v14.875a15.88 15.88 0 0 1-4.153 1.688 15.948 15.948 0 0 1-3.913.503c-1 .008-1.997-.11-2.968-.35V4.438c.229.053.465.102.706.142.394.066.81.115 1.214.145zm7.57.115-.54.182c-.497.167-.997.316-1.5.449a18.23 18.23 0 0 1-4.483.575c-.352 0-.676-.01-.989-.03l-.43-.028v12.148l.37.033c.343.03.696.045 1.052.045a14.364 14.364 0 0 0 3.531-.457c.95-.238 1.874-.57 2.759-.991l.231-.111V4.843zM19.06 24.113a.788.788 0 0 0-.6-.243.895.895 0 0 0-.347.065.778.778 0 0 0-.444.449.893.893 0 0 0-.062.335v2.023a.94.94 0 0 0 .08.415.718.718 0 0 0 .48.415c.098.028.2.042.302.042a.855.855 0 0 0 .838-.851v-.226h-.529v.18a.458.458 0 0 1-.031.18.315.315 0 0 1-.077.114.38.38 0 0 1-.222.077.266.266 0 0 1-.249-.109.479.479 0 0 1-.07-.271v-1.887a.643.643 0 0 1 .065-.302c.027-.043.066-.077.112-.098s.097-.03.147-.024a.28.28 0 0 1 .236.114c.059.078.09.173.088.271v.175h.524v-.206a.953.953 0 0 0-.242-.639zM22.202 24.09a.92.92 0 0 0-1.197 0 .82.82 0 0 0-.205.283.959.959 0 0 0-.077.392v1.941a.932.932 0 0 0 .077.397.791.791 0 0 0 .205.271.837.837 0 0 0 .279.171.897.897 0 0 0 .918-.171.849.849 0 0 0 .2-.271.934.934 0 0 0 .077-.397v-1.941a.943.943 0 0 0-.077-.392.867.867 0 0 0-.2-.283zm-.247 2.616a.355.355 0 0 1-.105.28.386.386 0 0 1-.498 0 .352.352 0 0 1-.105-.28v-1.941a.355.355 0 0 1 .105-.28.386.386 0 0 1 .498 0 .352.352 0 0 1 .105.28v1.941zM26.329 27.573v-3.674h-.509l-.668 1.945h-.009l-.673-1.945h-.503v3.674h.525v-2.235h.009l.514 1.58h.262l.518-1.58h.009v2.235h.525zM29.311 24.157a.727.727 0 0 0-.297-.201 1.168 1.168 0 0 0-.38-.057h-.78v3.674h.523v-1.435h.27a.964.964 0 0 0 .472-.1.759.759 0 0 0 .287-.281.875.875 0 0 0 .12-.32c.021-.138.03-.278.028-.418a2.107 2.107 0 0 0-.051-.525.785.785 0 0 0-.193-.338zm-.27 1.12a.45.45 0 0 1-.049.191.296.296 0 0 1-.135.129.538.538 0 0 1-.247.046h-.239v-1.249h.27a.506.506 0 0 1 .236.046.3.3 0 0 1 .123.136.537.537 0 0 1 .046.205v.244c0 .085.005.174 0 .252h-.005zM31.791 23.899h-.429l-.809 3.674h.523l.154-.789h.714l.154.789h.524l-.83-3.674zm-.483 2.384.258-1.332h.009l.256 1.332h-.524zM35.173 26.112h-.009l-.791-2.213h-.503v3.674h.523v-2.209h.011l.8 2.209h.492v-3.674h-.523v2.213zM38.372 23.899l-.421 1.461h-.011l-.421-1.461h-.554l.719 2.121v1.553h.524V26.02l.719-2.121h-.554zM17.6 28.61h.252v.708h.171v-.708h.251v-.145h-.675v.145zM19.721 28.465l-.331.853h.182l.07-.194h.34l.073.194h.186l-.339-.853h-.182zm-.027.516.116-.316.116.316h-.232zM21.818 29.004h.197v.11a.332.332 0 0 1-.202.072c-.034.002-.069-.004-.1-.019s-.059-.036-.081-.063a.352.352 0 0 1-.063-.222c0-.19.082-.285.246-.285.043-.004.086.007.121.032s.061.062.072.104l.169-.033c-.036-.167-.156-.251-.362-.251a.426.426 0 0 0-.298.11.413.413 0 0 0-.122.328.465.465 0 0 0 .109.32.408.408 0 0 0 .324.125.511.511 0 0 0 .362-.136v-.336h-.37v.144zM23.959 28.465h-.173v.853h.598v-.145h-.425v-.708zM25.769 28.465h-.173v.853h.173v-.853zM27.539 29.035l-.349-.57h-.167v.853h.161v-.557l.343.557h.171v-.853h-.158v.57zM29.14 28.943h.425v-.145h-.425v-.187h.457v-.145h-.63v.853h.648v-.145h-.475v-.231zM33.02 28.802h-.336v-.336h-.171v.853h.171v-.373h.336v.373h.171v-.853h-.171v.336zM34.629 28.943h.426v-.145h-.426v-.187h.459v-.145h-.63v.853h.646v-.145h-.475v-.231zM36.812 28.943c.148-.023.224-.102.224-.237a.203.203 0 0 0-.084-.189.479.479 0 0 0-.25-.05h-.362v.853h.171v-.357h.034a.231.231 0 0 1 .107.019.181.181 0 0 1 .061.062l.186.271h.205L37 29.148a.6.6 0 0 0-.189-.205zm-.172-.118h-.127v-.214h.135a.445.445 0 0 1 .174.02c.012.011.022.025.029.04a.116.116 0 0 1-.004.097.114.114 0 0 1-.032.037.486.486 0 0 1-.174.02zM38.458 28.943h.425v-.145h-.425v-.187h.459v-.145h-.631v.853h.648v-.145h-.475v-.231z"/></symbol><symbol id="Logo2" viewBox="0 0 57 32"><path  d="M19.417 26.187c.008 0 .017.002.025.005s.015.007.02.013l.116.111a.955.955 0 0 1-.327.211 1.299 1.299 0 0 1-.464.076 1.213 1.213 0 0 1-.436-.071.942.942 0 0 1-.329-.2.878.878 0 0 1-.212-.308 1.02 1.02 0 0 1-.074-.396.91.91 0 0 1 .305-.705 1.06 1.06 0 0 1 .349-.201c.143-.048.296-.072.449-.071.143-.003.285.019.417.064.115.043.221.104.313.178l-.097.119a.085.085 0 0 1-.025.021.066.066 0 0 1-.039.009.086.086 0 0 1-.042-.013l-.052-.032-.073-.04a.818.818 0 0 0-.229-.071 1.11 1.11 0 0 0-.173-.013.952.952 0 0 0-.323.053.683.683 0 0 0-.417.387.81.81 0 0 0-.06.313.795.795 0 0 0 .06.318.68.68 0 0 0 .402.383.867.867 0 0 0 .3.05c.059.001.119-.003.177-.01a.69.69 0 0 0 .384-.163.09.09 0 0 1 .055-.02zM22.776 25.629a.974.974 0 0 1-.078.393c-.047.114-.122.218-.219.305s-.214.155-.344.2a1.42 1.42 0 0 1-.884 0 1.027 1.027 0 0 1-.342-.201.904.904 0 0 1-.221-.308 1.022 1.022 0 0 1 0-.787.94.94 0 0 1 .221-.31c.097-.084.214-.15.342-.193.284-.096.6-.096.884 0 .129.046.246.114.343.201a.914.914 0 0 1 .298.699zm-.306 0a.84.84 0 0 0-.055-.316.653.653 0 0 0-.402-.385 1.025 1.025 0 0 0-.643 0 .683.683 0 0 0-.246.149.63.63 0 0 0-.157.236.927.927 0 0 0 0 .632.643.643 0 0 0 .403.384c.207.067.435.067.643 0a.698.698 0 0 0 .246-.148.662.662 0 0 0 .156-.236.82.82 0 0 0 .055-.316zM25.067 25.96l.03.071.033-.071a.68.68 0 0 1 .038-.07l.743-1.174c.015-.02.028-.033.042-.037a.207.207 0 0 1 .061-.006h.22v1.909h-.26V25.119a.726.726 0 0 1 0-.066l-.747 1.19c-.009.018-.025.033-.044.043s-.041.016-.064.016h-.042c-.023 0-.045-.005-.064-.016s-.034-.026-.044-.044l-.769-1.198v1.533h-.252v-1.905h.22a.207.207 0 0 1 .061.006.087.087 0 0 1 .041.037l.759 1.175a.418.418 0 0 1 .038.068zM27.864 25.865v.715h-.291v-1.906h.649c.122-.002.244.012.362.042a.724.724 0 0 1 .256.119.492.492 0 0 1 .145.187.576.576 0 0 1 .049.244.54.54 0 0 1-.211.435.752.752 0 0 1-.257.126 1.25 1.25 0 0 1-.35.044l-.352-.005zm0-.205h.352a.808.808 0 0 0 .225-.029.52.52 0 0 0 .163-.082.358.358 0 0 0 .134-.286c.003-.053-.007-.106-.029-.155s-.057-.094-.102-.13a.624.624 0 0 0-.391-.102h-.352v.786zM31.772 26.583h-.23a.109.109 0 0 1-.064-.018.123.123 0 0 1-.038-.044l-.198-.461h-.993l-.205.461a.107.107 0 0 1-.101.062h-.23l.872-1.909h.302l.884 1.909zm-1.439-.709h.82l-.346-.777a1.276 1.276 0 0 1-.065-.179l-.034.1a.98.98 0 0 1-.032.081l-.343.776zM33.029 24.682c.017.008.032.02.044.034l1.272 1.439V24.673h.26v1.909h-.145a.136.136 0 0 1-.06-.011.165.165 0 0 1-.047-.035l-1.271-1.438a.726.726 0 0 1 0 .066v1.419h-.26v-1.909h.154a.15.15 0 0 1 .052.009zM36.748 25.823v.758h-.291v-.758l-.804-1.15h.26a.114.114 0 0 1 .063.016.159.159 0 0 1 .039.043l.503.742a.717.717 0 0 1 .088.169l.038-.082a.745.745 0 0 1 .049-.087l.496-.747a.18.18 0 0 1 .038-.04.098.098 0 0 1 .063-.019h.263l-.806 1.155zM24.923 21.47c.127.014.255.025.384.035 1.962-.763 3.622-2.011 4.772-3.588s1.74-3.415 1.695-5.282l-2.162-1.879c.44 1.988.234 4.043-.594 5.935s-2.245 3.547-4.094 4.779z"/><path  d="m24.151 21.383.058.01c1.975-1.228 3.482-2.942 4.323-4.921s.981-4.133.4-6.181l-3.08-2.676c1.246 2.2 1.747 4.661 1.446 7.098s-1.393 4.75-3.147 6.67zM34.596 14.841c-.523 2.052-1.794 3.902-3.624 5.276-.534.404-1.111.763-1.722 1.074 1.49-.38 2.859-1.053 4.003-1.966s2.03-2.042 2.592-3.3l-1.249-1.084z"/><path  d="m34.106 14.539-1.778-1.545c-.034 1.762-.61 3.483-1.669 4.986s-2.562 2.731-4.352 3.559h.009c.399 0 .798-.021 1.194-.062 1.673-.593 3.151-1.537 4.303-2.748s1.94-2.65 2.295-4.189zM24.409 6.486 22.287 4.64c-1.897.637-3.528 1.756-4.68 3.212s-1.772 3.179-1.778 4.946c.007 1.952.763 3.846 2.149 5.383s3.322 2.628 5.501 3.101c1.946-2.06 3.085-4.605 3.252-7.266s-.647-5.299-2.323-7.53zM39.008 14.255c-.008-2.316-1.07-4.535-2.955-6.173s-4.439-2.561-7.105-2.567a11.3 11.3 0 0 0-3.602.582l12.99 11.286a7.647 7.647 0 0 0 .672-3.128z"/></symbol><symbol id="Logo3" viewBox="0 0 57 32"><path  d="M12.876 11.521h.002c1.162 0 2.049.831 2.049 1.791v.001c0 .961-.887 1.791-2.049 1.791h-.002c-1.162 0-2.049-.831-2.049-1.791v-.001c0-.961.887-1.791 2.049-1.791zM17.104 18.967l-.273.036v-8.406c.004-1.498.674-2.94 1.878-4.01s2.844-1.678 4.56-1.681c1.715.004 3.353.611 4.558 1.681 1.203 1.069 1.874 2.512 1.877 4.009v.001c0 1.753-.794 3.152-2.01 4.277-1.221 1.129-2.861 1.971-4.521 2.592-1.657.62-3.317 1.013-4.564 1.251a29.74 29.74 0 0 1-1.505.249zM12.018 22.159c0-.275-.092-.54-.259-.763s-.401-.391-.669-.49-.561-.124-.844-.074c-.283.05-.546.174-.756.36s-.357.428-.417.697c-.06.269-.029.547.088.798s.312.459.555.604c.168.1.354.166.548.198v.026h.267c.192 0 .382-.034.561-.1s.342-.163.482-.287c.139-.124.252-.274.329-.441s.117-.347.116-.529zm0 0v-.001l-.267.001h.267v-.001zm2.812-5.741.098-.013v5.756c-.003 1.017-.459 1.999-1.28 2.728s-1.942 1.147-3.116 1.15c-1.175-.003-2.295-.42-3.117-1.151s-1.277-1.712-1.28-2.729c0-1.191.538-2.145 1.372-2.915.839-.775 1.969-1.357 3.119-1.787a19.797 19.797 0 0 1 3.163-.867 21.86 21.86 0 0 1 1.043-.173z"/><path  d="M19.956 22.647h-.9v.93h-.469v-2.275h1.481v.38h-1.012v.588h.9v.378zm2.253-.156c0 .224-.04.42-.119.589a.893.893 0 0 1-.847.528c-.189 0-.357-.045-.505-.136s-.262-.22-.344-.387a1.344 1.344 0 0 1-.123-.581v-.112c0-.224.04-.421.12-.591a.895.895 0 0 1 .848-.529c.189 0 .358.046.505.137a.888.888 0 0 1 .342.392c.081.17.122.366.122.589v.102zm-.475-.103c0-.238-.043-.42-.128-.544s-.207-.186-.366-.186a.416.416 0 0 0-.364.184c-.085.122-.129.301-.13.538v.111c0 .232.043.412.128.541s.208.192.369.192a.415.415 0 0 0 .363-.184c.084-.124.127-.304.128-.541v-.111zm1.996.592a.237.237 0 0 0-.094-.203 1.203 1.203 0 0 0-.337-.15 2.418 2.418 0 0 1-.386-.156c-.258-.14-.387-.328-.387-.564 0-.123.034-.232.103-.328a.688.688 0 0 1 .298-.227c.13-.054.276-.081.438-.081.163 0 .307.03.434.089a.662.662 0 0 1 .401.614h-.469c0-.104-.033-.185-.098-.242s-.158-.087-.277-.087a.426.426 0 0 0-.267.073.225.225 0 0 0-.095.191c0 .074.037.136.111.186.075.05.185.097.33.141.267.08.461.18.583.298s.183.267.183.444a.55.55 0 0 1-.223.464c-.149.111-.349.167-.602.167-.175 0-.334-.032-.478-.095-.144-.065-.254-.153-.33-.264s-.113-.241-.113-.388h.47c0 .251.15.377.45.377a.442.442 0 0 0 .261-.067.222.222 0 0 0 .094-.191zm2.501-1.298h-.697v1.895h-.469v-1.895h-.687v-.38h1.853v.38zm1.638.909h-.9v.609h1.056v.377H26.5v-2.275h1.522v.38h-1.053v.542h.9v.367zm1.273.153h-.373v.833H28.3v-2.275h.845c.269 0 .476.06.622.18s.219.289.219.508a.697.697 0 0 1-.102.389.689.689 0 0 1-.305.247l.492.93v.022h-.503l-.427-.833zm-.373-.379h.378c.118 0 .209-.03.273-.089a.321.321 0 0 0 .097-.248.343.343 0 0 0-.092-.253c-.06-.061-.154-.092-.28-.092h-.377v.683zm2.84.41v.802h-.469v-2.275h.887c.171 0 .321.031.45.094a.703.703 0 0 1 .405.659.655.655 0 0 1-.23.528c-.152.128-.363.192-.633.192h-.411zm0-.379h.419c.124 0 .218-.029.283-.088.066-.058.098-.142.098-.25 0-.111-.033-.202-.098-.27s-.156-.104-.272-.106h-.43v.714zm2.966.195h-.9v.609h1.056v.377h-1.525v-2.275h1.522v.38h-1.053v.542h.9v.367zm2.175-.909h-.697v1.895h-.469v-1.895h-.688v-.38h1.853v.38zm1.637.909h-.9v.609h1.056v.377h-1.525v-2.275h1.522v.38h-1.053v.542h.9v.367zm1.274.153h-.373v.833h-.469v-2.275h.845c.269 0 .476.06.622.18s.219.289.219.508a.697.697 0 0 1-.102.389.689.689 0 0 1-.305.247l.492.93v.022h-.503l-.427-.833zm-.374-.379h.378c.118 0 .209-.03.273-.089a.321.321 0 0 0 .097-.248.343.343 0 0 0-.092-.253c-.06-.061-.154-.092-.28-.092h-.377v.683zm2.755.615a.237.237 0 0 0-.094-.203 1.203 1.203 0 0 0-.337-.15 2.418 2.418 0 0 1-.386-.156c-.258-.14-.388-.328-.388-.564 0-.123.034-.232.103-.328a.688.688 0 0 1 .298-.227c.13-.054.276-.081.438-.081.163 0 .307.03.434.089a.675.675 0 0 1 .295.248.646.646 0 0 1 .106.366h-.469c0-.104-.033-.185-.098-.242s-.158-.087-.277-.087a.426.426 0 0 0-.267.073.225.225 0 0 0-.095.191c0 .074.037.136.111.186.075.05.185.097.33.141.267.08.461.18.583.298s.183.267.183.444a.548.548 0 0 1-.223.464c-.149.111-.349.167-.602.167-.175 0-.334-.032-.478-.095a.773.773 0 0 1-.33-.264.678.678 0 0 1-.112-.388h.47c0 .251.15.377.45.377a.442.442 0 0 0 .261-.067.222.222 0 0 0 .094-.191z"/><path d="M19.956 22.647v.533h.533v-.533h-.533zm-.9 0v-.533h-.533v.533h.533zm0 .93v.533h.533v-.533h-.533zm-.469 0h-.533v.533h.533v-.533zm0-2.275v-.533h-.533v.533h.533zm1.482 0h.533v-.533h-.533v.533zm0 .38v.533h.533v-.533h-.533zm-1.013 0v-.533h-.533v.533h.533zm0 .587h-.533v.533h.533v-.533zm.9 0h.533v-.533h-.533v.533zm0-.155h-.9v1.067h.9v-1.067zm-1.433.533v.93h1.067v-.93h-1.067zm.533.397h-.469v1.067h.469v-1.067zm.065.533v-2.275h-1.067v2.275h1.067zm-.534-1.742h1.481v-1.067h-1.481v1.067zm.948-.533v.38h1.067v-.38h-1.067zm.534-.154h-1.012v1.067h1.012v-1.067zm-1.546.534v.588h1.067v-.588h-1.067zm.533 1.121h.9v-1.067h-.9v1.067zm.367-.534v.378h1.067v-.378h-1.067zm2.327 1.202-.281-.453-.001.001.282.452zm-1.355-.386-.481.231.001.001.48-.233zm-.123-.581h-.533v.003l.533-.003zm.12-.704-.482-.229-.001.001.482.228zm.342-.392.28.454.001-.001-.281-.453zm1.011 0-.282.452.004.002.279-.455zm.342.392-.483.227.002.004.481-.23zm-1.211.043.437.306.001-.002-.438-.304zm-.129.537-.533-.002v.002h.533zm.859.66.44.302.001-.002-.441-.3zm.128-.541.533.002v-.002h-.533zm-.058-.008a.85.85 0 0 1-.068.363l.966.453a1.91 1.91 0 0 0 .169-.816h-1.067zm-.068.363a.362.362 0 0 1-.139.164l.562.907a1.43 1.43 0 0 0 .543-.617l-.966-.453zm-.141.164a.403.403 0 0 1-.224.057v1.067c.28 0 .549-.069.789-.218l-.565-.905zm-.223.057a.423.423 0 0 1-.226-.057l-.557.91c.239.146.505.215.783.215v-1.067zm-.226-.057a.37.37 0 0 1-.142-.165l-.96.465c.122.252.304.462.545.61l.557-.91zm-.142-.165a.806.806 0 0 1-.071-.352l-1.067.005c.001.285.055.559.176.81l.961-.463zm-.071-.349v-.112h-1.067v.112h1.067zm0-.113c0-.16.028-.277.069-.363l-.964-.456c-.12.253-.171.531-.171.818h1.067zm.069-.361a.373.373 0 0 1 .141-.167l-.56-.908c-.243.15-.423.363-.544.617l.963.458zm.141-.168a.407.407 0 0 1 .225-.058v-1.067c-.28 0-.547.069-.787.218l.562.907zm.225-.058c.1 0 .168.023.222.057l.565-.905a1.47 1.47 0 0 0-.787-.218v1.067zm.226.059a.358.358 0 0 1 .138.164l.966-.453a1.42 1.42 0 0 0-.546-.62l-.557.91zm.14.168c.041.086.07.201.07.359h1.067c0-.288-.053-.566-.174-.819l-.962.46zm.07.359v.102h1.067v-.102h-1.067zm.592-.002c0-.288-.049-.595-.222-.846l-.878.605c-.003-.004.006.008.016.049s.018.104.018.193h1.067zm-.223-.846a.95.95 0 0 0-.805-.417v1.067c.008 0-.007.001-.032-.011-.012-.006-.022-.013-.03-.02s-.012-.012-.012-.013l.878-.605zm-.805-.417a.952.952 0 0 0-.802.413l.876.609c-.001.001-.004.006-.012.013s-.018.014-.03.02c-.025.013-.04.011-.032.011v-1.067zm-.8.412c-.175.249-.225.555-.226.841l1.067.005c0-.088.009-.149.018-.189s.018-.05.015-.045l-.874-.612zm-.227.843v.111h1.067v-.111h-1.067zm0 .111c0 .287.051.587.218.836l.888-.592c-.004-.006-.039-.068-.039-.245h-1.067zm.218.837c.189.284.483.43.812.43v-1.067c-.008 0 .008-.001.034.012.012.006.022.014.03.021s.011.012.011.012l-.888.592zm.813.429a.945.945 0 0 0 .802-.416l-.879-.604c.001-.001.005-.007.013-.014s.019-.015.031-.021c.026-.013.041-.012.033-.012v1.067zm.803-.417c.169-.249.219-.552.221-.838l-1.067-.005c0 .088-.009.15-.018.192s-.019.054-.017.051l.882.6zm.221-.841v-.111h-1.067v.111h1.067zm1.368.278-.325.423.005.003.32-.427zm-.338-.15-.166.507.003.001.163-.508zm-.386-.156-.253.469h.001l.253-.47zm-.284-.892-.433-.312-.001.001.433.311zm.298-.227-.205-.492-.001.001.206.492zm.872.008-.226.483.003.002.223-.485zm.296.248-.447.291.002.003.445-.294zm.106.366v.533h.533v-.533H24.2zm-.469 0h-.533v.533h.533v-.533zm-.098-.242-.354.399.004.003.351-.402zm-.544-.014.321.426.004-.003-.326-.422zm.016.376-.299.442.003.002.296-.444zm.329.141-.154.511h.001l.154-.511zm.542 1.206.32.427.002-.001-.321-.426zm-1.079.072-.219.486.003.001.216-.488zm-.33-.264-.442.298.002.003.441-.301zm-.113-.388v-.533h-.533v.533h.533zm.471 0h.533v-.533h-.533v.533zm.711.31.311.434.005-.003-.315-.43zm.627-.191a.77.77 0 0 0-.307-.63l-.64.853a.31.31 0 0 1-.094-.117.267.267 0 0 1-.026-.106h1.067zm-.303-.626a1.705 1.705 0 0 0-.499-.235l-.326 1.016c.069.022.119.041.152.056.037.016.039.021.023.009l.649-.846zm-.496-.234a1.907 1.907 0 0 1-.299-.119l-.506.939c.134.072.296.136.473.194l.331-1.014zm-.298-.118a.323.323 0 0 1-.107-.081s0-.001-.001-.003l-.001-.01H21.99c0 .483.286.827.667 1.033l.507-.938zm-.108-.095.001-.012v-.003l.002-.003-.867-.622a1.08 1.08 0 0 0-.203.639h1.067zm.003-.017c.003-.004.018-.024.072-.047l-.412-.984a1.216 1.216 0 0 0-.525.407l.865.624zm.07-.046a.592.592 0 0 1 .233-.04v-1.067c-.222 0-.439.037-.642.122l.41.985zm.233-.04a.48.48 0 0 1 .209.039l.452-.966a1.55 1.55 0 0 0-.66-.139v1.067zm.212.041c.044.02.061.04.071.055l.894-.582a1.21 1.21 0 0 0-.52-.442l-.445.969zm.072.057c.01.015.018.033.018.072h1.067c0-.234-.063-.46-.195-.659l-.89.588zm.552-.461h-.469v1.067h.469v-1.067zm.064.533a.839.839 0 0 0-.281-.644l-.701.804a.268.268 0 0 1-.07-.097.188.188 0 0 1-.015-.062h1.067zm-.277-.641a.93.93 0 0 0-.631-.222v1.067c.017 0 .014.002-.003-.003a.229.229 0 0 1-.075-.044l.709-.797zm-.631-.222a.958.958 0 0 0-.593.184l.651.845a.225.225 0 0 1-.07.037c-.011.003-.009.001.011.001v-1.067zm-.588.181a.761.761 0 0 0-.308.616h1.067a.302.302 0 0 1-.116.235l-.642-.852zm-.308.616c0 .289.16.502.346.628l.597-.884a.264.264 0 0 1 .076.085.341.341 0 0 1 .048.171H22.46zm.349.63c.138.092.305.157.471.207l.309-1.021a.797.797 0 0 1-.188-.074l-.592.888zm.472.208c.231.069.331.137.364.17l.744-.764c-.211-.205-.499-.336-.801-.427l-.307 1.021zm.364.169c.012.012.015.019.016.021s.006.014.006.041h1.067c0-.314-.114-.602-.344-.826l-.744.764zm.021.062c0 .016-.002.025-.002.029s-.001.005-.001.003.002-.003.002-.003l-.01.009.643.851c.291-.22.435-.536.435-.89h-1.067zm-.009.037c-.029.022-.105.061-.282.061v1.067c.327 0 .652-.072.921-.273l-.639-.854zm-.282.061a.64.64 0 0 1-.262-.05l-.431.976a1.7 1.7 0 0 0 .694.141v-1.067zm-.26-.049a.248.248 0 0 1-.108-.078l-.881.601c.14.206.334.352.552.45l.437-.973zm-.106-.075c-.01-.015-.022-.039-.022-.09H21.92c0 .243.064.478.203.685l.885-.595zm-.555.444h.47v-1.067h-.47v1.067zm-.062-.534c0 .235.075.5.304.691.211.176.468.218.68.218v-1.067a.22.22 0 0 1-.054-.004c.003.001.028.008.058.034a.248.248 0 0 1 .069.094c.011.029.01.043.01.033h-1.067zm.983.91a.97.97 0 0 0 .572-.167l-.621-.867c.03-.022.056-.03.066-.033s.005 0-.016 0v1.067zm.576-.17a.756.756 0 0 0 .312-.621h-1.067c0-.029.006-.075.031-.127s.061-.09.093-.113l.631.86zm2.28-1.919v.533h.533v-.533h-.533zm-.697 0v-.533h-.533v.533h.533zm0 1.895v.533h.533v-.533h-.533zm-.469 0h-.533v.533h.533v-.533zm0-1.895h.533v-.533h-.533v.533zm-.687 0h-.533v.533h.533v-.533zm0-.38v-.533h-.533v.533h.533zm1.853 0h.533v-.533h-.533v.533zm0-.154h-.697v1.067h.697v-1.067zm-1.23.534v1.895h1.067v-1.895h-1.067zm.533 1.362h-.469v1.067h.469v-1.067zm.065.533v-1.895h-1.067v1.895h1.067zm-.534-2.429h-.687v1.067h.687v-1.067zm-.154.534v-.38h-1.067v.38h1.067zm-.533.153h1.853v-1.067h-1.853v1.067zm1.32-.533v.38h1.067v-.38h-1.067zm2.171 1.289v.533h.533v-.533h-.533zm-.9 0v-.533h-.533v.533h.533zm0 .609h-.533v.533h.533V23.2zm1.056 0h.533v-.533h-.533v.533zm0 .377v.533h.533v-.533h-.533zm-1.525 0h-.533v.533h.533v-.533zm0-2.275v-.533h-.533v.533h.533zm1.522 0h.533v-.533h-.533v.533zm0 .38v.533h.533v-.533h-.533zm-1.053 0v-.533h-.533v.533h.533zm0 .542h-.533v.533h.533v-.533zm.9 0h.533v-.533h-.533v.533zm0-.166h-.9v1.067h.9v-1.067zm-1.434.533v.609h1.067v-.609h-1.067zm.534 1.143h1.056v-1.067h-1.056v1.067zm.523-.534v.377h1.067V23.2h-1.067zm.533-.156H26.5v1.067h1.525v-1.067zm-.992.533v-2.275h-1.067v2.275h1.067zm-.533-1.742h1.522v-1.067H26.5v1.067zm.988-.533v.38h1.067v-.38h-1.067zm.534-.154h-1.053v1.067h1.053v-1.067zm-1.587.534v.542h1.067v-.542h-1.067zm.534 1.075h.9V21.69h-.9v1.067zm.366-.533v.367h1.067v-.367h-1.067zm1.807.52.475-.243-.149-.29h-.326v.533zm-.373 0v-.533h-.533v.533h.533zm0 .833v.533h.533v-.533h-.533zm-.469 0h-.533v.533h.533v-.533zm0-2.275v-.533h-.533v.533h.533zm1.584 1.077-.447-.291-.001.001.448.29zm-.304.246-.219-.486-.518.233.266.502.471-.25zm.492.93h.533v-.132l-.062-.117-.471.25zm0 .022v.533h.533v-.533h-.533zm-.503 0-.475.243.149.29h.326v-.533zm-.8-1.212h-.533v.533h.533v-.533zm.651-.09.361.393.003-.003-.364-.39zm.005-.501-.38.374.003.003.377-.377zm-.656-.092v-.533h-.533v.533h.533zm.373.529h-.373v1.067h.373v-1.067zm-.907.533v.833h1.067v-.833h-1.067zm.534.3H28.3v1.067h.469v-1.067zm.064.533v-2.275h-1.067v2.275h1.067zm-.533-1.742h.845v-1.067H28.3v1.067zm.845 0c.197 0 .266.044.283.058l.677-.824c-.275-.226-.62-.301-.96-.301v1.067zm.283.059c.009.007.011.011.013.016a.21.21 0 0 1 .011.08h1.067c0-.35-.124-.682-.414-.92l-.677.824zm.024.095c0 .039-.004.064-.008.079s-.007.019-.007.019l.894.581c.136-.21.188-.447.188-.68h-1.067zm-.016.1c-.001.001-.004.006-.014.014s-.029.021-.062.036l.438.973c.209-.094.4-.237.534-.444l-.896-.579zm-.328.786.492.93.943-.499-.492-.93-.943.499zm.43.68v.022h1.067v-.022h-1.067zm.534-.511h-.503v1.067h.503v-1.067zm-.029.29-.427-.833-.949.486.427.833.949-.486zm-1.274-.436h.378v-1.067h-.378v1.067zm.378 0a.917.917 0 0 0 .634-.23l-.722-.785a.227.227 0 0 1 .079-.048c.018-.006.024-.004.009-.004v1.067zm.637-.233a.854.854 0 0 0 .266-.638h-1.067c0-.002 0-.022.012-.053a.242.242 0 0 1 .06-.088l.729.779zm.266-.638a.875.875 0 0 0-.248-.63l-.754.754a.237.237 0 0 1-.055-.085c-.01-.026-.009-.042-.009-.039h1.067zm-.245-.627c-.199-.203-.457-.252-.66-.252v1.067c.022 0 .018.003-.003-.004a.257.257 0 0 1-.098-.064l.761-.748zm-.66-.252h-.377v1.067h.377v-1.067zm-.91.534v.683h1.067v-.683h-1.067zm3.374 1.093v-.533h-.533v.533h.533zm0 .802v.533h.533v-.533h-.533zm-.469 0h-.533v.533h.533v-.533zm0-2.275v-.533h-.533v.533h.533zm1.338.094-.232.48.002.001.231-.481zm.3.267-.457.276.001.002.456-.277zm-.125.92.344.408-.344-.408zm-1.044-.187h-.533v.533h.533v-.533zm.702-.088-.354-.399-.003.003.358.396zm-.272-.626.01-.533h-.01v.533zm-.43 0v-.533h-.533v.533h.533zm-.533 1.093v.802h1.067v-.802h-1.067zm.533.269h-.469v1.067h.469v-1.067zm.065.533v-2.275h-1.067v2.275h1.067zm-.534-1.742h.887v-1.067h-.887v1.067zm.888 0c.106 0 .173.019.218.04l.465-.96a1.546 1.546 0 0 0-.682-.147v1.067zm.219.042a.16.16 0 0 1 .074.062l.913-.551a1.218 1.218 0 0 0-.526-.472l-.462.962zm.075.063a.209.209 0 0 1 .027.115h1.067c0-.235-.057-.464-.183-.67l-.911.555zm.027.115c0 .086-.022.105-.04.12l.688.815c.288-.243.419-.576.419-.936h-1.067zm-.04.12c-.026.022-.1.067-.289.067v1.067c.351 0 .699-.084.976-.318l-.687-.816zm-.289.067h-.411v1.067h.411v-1.067zm-.411.687h.419v-1.067h-.419v1.067zm.419 0c.2 0 .443-.047.64-.225l-.715-.792a.229.229 0 0 1 .081-.048c.015-.005.016-.002-.006-.002v1.067zm.637-.222a.85.85 0 0 0 .277-.649h-1.067c0 .001 0-.02.012-.052a.264.264 0 0 1 .068-.097l.709.797zm.278-.649a.907.907 0 0 0-.246-.639l-.772.737a.187.187 0 0 1-.041-.067c-.008-.022-.008-.035-.008-.031h1.067zm-.246-.638a.9.9 0 0 0-.648-.271l-.019 1.066c.006 0-.006.001-.03-.008a.229.229 0 0 1-.075-.05l.772-.737zm-.658-.272h-.43v1.067h.43v-1.067zm-.963.534v.714h1.067v-.714h-1.067zm3.499.909v.533h.533v-.533h-.533zm-.9 0v-.533h-.533v.533h.533zm0 .609h-.533v.533h.533V23.2zm1.056 0h.533v-.533h-.533v.533zm0 .377v.533h.533v-.533h-.533zm-1.525 0h-.533v.533h.533v-.533zm0-2.275v-.533h-.533v.533h.533zm1.522 0h.533v-.533h-.533v.533zm0 .38v.533h.533v-.533h-.533zm-1.053 0v-.533h-.533v.533h.533zm0 .542h-.533v.533h.533v-.533zm.9 0h.533v-.533h-.533v.533zm0-.166h-.9v1.067h.9v-1.067zm-1.433.533v.609h1.067v-.609h-1.067zm.533 1.143h1.056v-1.067h-1.056v1.067zm.523-.534v.377h1.067V23.2h-1.067zm.533-.156h-1.525v1.067h1.525v-1.067zm-.992.533v-2.275h-1.067v2.275h1.067zm-.533-1.742h1.522v-1.067h-1.522v1.067zm.989-.533v.38h1.067v-.38h-1.067zm.533-.154h-1.053v1.067h1.053v-1.067zm-1.586.534v.542h1.067v-.542h-1.067zm.533 1.075h.9V21.69h-.9v1.067zm.366-.533v.367h1.067v-.367h-1.067zm2.709-.542v.533h.533v-.533h-.533zm-.697 0v-.533h-.533v.533h.533zm0 1.895v.533h.533v-.533h-.533zm-.469 0h-.533v.533h.533v-.533zm0-1.895h.533v-.533h-.533v.533zm-.687 0h-.533v.533h.533v-.533zm0-.38v-.533h-.533v.533h.533zm1.853 0h.533v-.533h-.533v.533zm0-.154h-.697v1.067h.697v-1.067zm-1.23.534v1.895h1.067v-1.895H35.52zm.533 1.362h-.469v1.067h.469v-1.067zm.065.533v-1.895h-1.067v1.895h1.067zm-.534-2.429h-.688v1.067h.688v-1.067zm-.154.534v-.38h-1.067v.38h1.067zm-.533.153h1.853v-1.067h-1.853v1.067zm1.319-.533v.38h1.067v-.38h-1.067zm2.171 1.289v.533h.533v-.533h-.533zm-.9 0v-.533h-.533v.533h.533zm0 .609h-.533v.533h.533V23.2zm1.057 0h.533v-.533h-.533v.533zm0 .377v.533h.533v-.533h-.533zm-1.525 0h-.533v.533h.533v-.533zm0-2.275v-.533h-.533v.533h.533zm1.521 0h.533v-.533h-.533v.533zm0 .38v.533h.533v-.533h-.533zm-1.053 0v-.533h-.533v.533h.533zm0 .542h-.533v.533h.533v-.533zm.9 0h.533v-.533h-.533v.533zm0-.166h-.9v1.067h.9v-1.067zm-1.433.533v.609h1.067v-.609h-1.067zm.533 1.143h1.056v-1.067h-1.056v1.067zm.523-.534v.377h1.067V23.2H38.01zm.534-.156h-1.525v1.067h1.525v-1.067zm-.992.533v-2.275h-1.067v2.275h1.067zm-.533-1.742h1.522v-1.067h-1.522v1.067zm.988-.533v.38h1.067v-.38h-1.067zm.533-.154h-1.053v1.067h1.053v-1.067zm-1.586.534v.542h1.067v-.542h-1.067zm.533 1.075h.9V21.69h-.9v1.067zm.367-.533v.367h1.067v-.367h-1.067zm1.807.52.475-.243-.149-.29h-.326v.533zm-.374 0v-.533h-.533v.533h.533zm0 .833v.533h.533v-.533h-.533zm-.468 0h-.533v.533h.533v-.533zm0-2.275v-.533h-.533v.533h.533zm1.584 1.077-.447-.291-.001.001.448.29zm-.305.246-.219-.486-.518.233.266.502.471-.25zm.492.93h.533v-.132l-.062-.117-.471.25zm0 .022v.533h.533v-.533h-.533zm-.503 0-.475.243.149.29h.326v-.533zm-.8-1.212h-.533v.533h.533v-.533zm.652-.09.361.393.003-.003-.364-.39zm.005-.501-.38.374.003.003.377-.377zm-.657-.092v-.533h-.533v.533h.533zm.374.529h-.373v1.067h.373v-1.067zm-.907.533v.833h1.067v-.833h-1.067zm.533.3h-.469v1.067h.469v-1.067zm.065.533v-2.275h-1.067v2.275h1.067zm-.533-1.742h.845v-1.067h-.845v1.067zm.845 0c.197 0 .266.044.283.058l.677-.824c-.275-.226-.62-.301-.96-.301v1.067zm.283.059c.009.007.011.011.013.016a.21.21 0 0 1 .011.08h1.067c0-.35-.124-.682-.414-.92l-.677.824zm.024.095c0 .039-.004.064-.008.079s-.007.019-.007.019l.894.581c.136-.21.188-.447.188-.68h-1.067zm-.016.1c-.001.001-.004.006-.014.014s-.029.021-.062.036l.438.973c.209-.094.4-.237.534-.444l-.896-.579zm-.328.786.492.93.943-.499-.492-.93-.943.499zm.43.68v.022h1.067v-.022h-1.067zm.533-.511h-.503v1.067h.503v-1.067zm-.028.29-.427-.833-.949.486.427.833.949-.486zm-1.275-.436h.378v-1.067h-.378v1.067zm.378 0a.917.917 0 0 0 .634-.23l-.722-.785a.227.227 0 0 1 .079-.048c.018-.006.024-.004.009-.004v1.067zm.638-.233a.854.854 0 0 0 .266-.638h-1.067c0-.002 0-.022.012-.053a.242.242 0 0 1 .06-.088l.729.779zm.266-.638a.875.875 0 0 0-.248-.63l-.754.754a.252.252 0 0 1-.055-.085c-.01-.026-.009-.042-.009-.039h1.067zm-.245-.627c-.199-.203-.457-.252-.66-.252v1.067c.022 0 .018.003-.002-.004a.257.257 0 0 1-.098-.064l.761-.748zm-.66-.252h-.377v1.067h.377v-1.067zm-.91.534v.683h1.067v-.683h-1.067zm3.194 1.095-.325.423.005.003.32-.427zm-.337-.15-.166.507.003.001.163-.508zm-.386-.156-.254.469h.001l.253-.47zm-.285-.892-.433-.312-.001.001.433.311zm.299-.227-.205-.492-.001.001.206.492zm.872.008-.226.483.003.002.222-.485zm.295.248-.447.291.002.003.445-.294zm.106.366v.533h.533v-.533h-.533zm-.468 0h-.533v.533h.533v-.533zm-.099-.242-.354.399.004.003.351-.402zm-.544-.014.321.426.004-.003-.326-.422zm.016.376-.299.442.003.002.296-.444zm.33.141-.154.511h.001l.154-.511zm.542 1.206.32.427.002-.001-.321-.426zm-1.08.072-.219.486.003.001.216-.488zm-.329-.264-.443.298.002.003.441-.301zm-.113-.388v-.533h-.533v.533h.533zm.47 0h.533v-.533h-.533v.533zm.711.31.311.434.005-.003-.315-.43zm.627-.191a.77.77 0 0 0-.307-.63l-.64.853a.31.31 0 0 1-.094-.117.267.267 0 0 1-.026-.106h1.067zm-.302-.626a1.705 1.705 0 0 0-.499-.235l-.326 1.016c.069.022.119.041.152.056.037.016.039.021.023.009l.649-.846zm-.497-.234a1.907 1.907 0 0 1-.299-.119l-.506.939c.134.072.296.136.473.194l.331-1.014zm-.298-.118a.323.323 0 0 1-.107-.081s0-.001 0-.003l-.001-.01h-1.067c0 .483.286.827.667 1.033l.507-.938zm-.107-.095.001-.012v-.003l.002-.003-.867-.622a1.08 1.08 0 0 0-.203.639h1.067zm.002-.017c.003-.004.018-.024.072-.047l-.413-.984a1.216 1.216 0 0 0-.525.407l.865.624zm.071-.046a.592.592 0 0 1 .233-.04v-1.067c-.222 0-.438.037-.642.122l.41.985zm.232-.04a.48.48 0 0 1 .209.039l.452-.966a1.55 1.55 0 0 0-.66-.139v1.067zm.212.041c.044.02.061.04.071.055l.894-.582a1.21 1.21 0 0 0-.52-.442l-.445.969zm.073.057c.01.015.018.033.018.072h1.067c0-.234-.063-.46-.194-.659l-.89.588zm.551-.461h-.469v1.067h.469v-1.067zm.065.533a.839.839 0 0 0-.281-.644l-.702.804a.265.265 0 0 1-.069-.097.188.188 0 0 1-.015-.062h1.067zm-.278-.641a.93.93 0 0 0-.631-.222v1.067c.017 0 .014.002-.003-.003a.229.229 0 0 1-.075-.044l.709-.797zm-.63-.222a.958.958 0 0 0-.593.184l.651.845a.214.214 0 0 1-.07.037c-.011.003-.009.001.011.001v-1.067zm-.589.181a.761.761 0 0 0-.308.616h1.067a.302.302 0 0 1-.116.235l-.642-.852zm-.307.616c0 .289.16.502.346.628l.597-.884a.264.264 0 0 1 .076.085.341.341 0 0 1 .048.171h-1.067zm.348.63c.138.092.305.157.471.207l.309-1.021a.797.797 0 0 1-.188-.074l-.592.888zm.472.208c.231.069.331.137.364.17l.744-.764c-.211-.205-.499-.336-.801-.427l-.307 1.021zm.364.169c.012.012.015.019.016.021s.005.014.005.041h1.067c0-.314-.114-.602-.344-.826l-.744.764zm.022.062c0 .016-.001.025-.002.029l-.001.003c0-.002.002-.003.002-.003l-.01.009.643.851c.291-.22.435-.536.435-.89h-1.067zm-.01.037c-.029.022-.105.061-.282.061v1.067c.327 0 .652-.072.921-.273l-.639-.854zm-.282.061a.648.648 0 0 1-.263-.05l-.431.976a1.7 1.7 0 0 0 .694.141v-1.067zm-.259-.049a.248.248 0 0 1-.108-.078l-.881.601c.14.206.334.352.552.45l.437-.973zm-.106-.075c-.01-.015-.022-.039-.022-.09h-1.067c0 .243.064.478.203.685l.885-.595zm-.555.444h.47v-1.067h-.47v1.067zm-.063-.534c0 .235.075.5.304.691.211.176.468.218.68.218v-1.067a.22.22 0 0 1-.054-.004c.003.001.028.008.058.034a.248.248 0 0 1 .069.094c.011.029.01.043.01.033h-1.067zm.983.91a.97.97 0 0 0 .572-.167l-.621-.867c.031-.022.056-.03.066-.033s.005 0-.016 0v1.067zm.577-.17a.756.756 0 0 0 .312-.621h-1.067a.311.311 0 0 1 .124-.24l.631.86z"/></symbol><symbol id="Logo4" viewBox="0 0 56 32"><path  d="M14.036 23.468a.749.749 0 0 1 .192.513c.007.121-.017.243-.069.355s-.13.212-.23.293a1.37 1.37 0 0 1-.866.236H11.54v-3.248h1.492c.295-.018.587.058.827.216.096.074.173.167.223.273s.073.22.067.335a.714.714 0 0 1-.173.497.83.83 0 0 1-.454.254.888.888 0 0 1 .515.278zm-1.786-.491h.638a.644.644 0 0 0 .405-.108c.048-.04.085-.089.109-.144s.033-.114.028-.173c.005-.059-.005-.118-.029-.173s-.06-.104-.107-.145a.65.65 0 0 0-.418-.109h-.627v.852zm1.105 1.246c.051-.041.091-.092.118-.149s.037-.119.033-.181c.004-.063-.008-.125-.035-.183s-.068-.109-.12-.15a.699.699 0 0 0-.433-.117h-.669v.893h.678a.72.72 0 0 0 .428-.113zM17.086 24.864l-.83-1.269h-.312v1.269h-.714v-3.248h1.352c.341-.022.678.077.941.276.189.176.303.409.321.655s-.06.491-.221.689a1.13 1.13 0 0 1-.645.33l.884 1.298h-.776zm-1.142-1.712h.584c.405 0 .608-.164.608-.492.004-.067-.007-.134-.033-.197s-.065-.12-.116-.168a.67.67 0 0 0-.459-.132h-.591l.007.988zM20.989 24.21h-1.423l-.251.654h-.749l1.307-3.212h.809l1.301 3.212h-.749l-.246-.654zm-.191-.492-.52-1.371-.52 1.371h1.04zM25.874 24.864h-.709l-1.589-2.209v2.209h-.707v-3.248h.707l1.589 2.221v-2.221h.709v3.248zM29.919 24.087c-.147.245-.37.445-.641.573a2.248 2.248 0 0 1-.996.205H27.02v-3.248h1.262c.345-.008.687.06.996.2.271.125.495.323.641.566.146.264.222.556.222.852s-.076.588-.222.852zm-.811-.078c.202-.216.314-.491.314-.775s-.111-.559-.314-.775a1.304 1.304 0 0 0-.887-.276h-.492v2.102h.492c.324.019.643-.081.887-.276zM21.433 3.55s9.148 3.162 8.954 7.738v7.74s-9.141-3.164-8.951-7.74l-.003-7.738zM38.537 17.216a13.261 13.261 0 0 1 5.812-1.961v-2.423c-2.404.848-4.443 2.386-5.812 4.384z"/><path  d="M37.499 17.946c1.414-2.607 3.866-4.619 6.85-5.622V5.343S31.321 9.848 31.596 16.364v11.02s.581-.201 1.494-.579c0-.352 0-.708.042-1.065.27-3.025 1.84-5.829 4.367-7.794z"/><path  d="M36.26 22.04c.068-.764.221-1.52.456-2.256-1.573 1.697-2.526 3.803-2.724 6.022-.019.209-.029.419-.035.635.74-.325 1.601-.732 2.506-1.209a10.47 10.47 0 0 1-.203-3.191zM36.778 22.079a9.974 9.974 0 0 0 .161 2.889c3.559-1.95 7.559-4.963 7.405-8.605v-.317c-2.543.261-4.922 1.278-6.772 2.897a10.104 10.104 0 0 0-.794 3.135z"/></symbol><symbol id="Logo5" viewBox="0 0 57 32"><path  d="M28.493 14.618a1.58 1.58 0 0 1-.323-1.061v-1.538c0-.471.107-.83.321-1.075s.581-.367 1.102-.366c.489 0 .836.104 1.042.313.224.266.333.592.308.92v.361h-.875v-.366c.003-.12-.005-.24-.025-.358a.352.352 0 0 0-.125-.213.505.505 0 0 0-.317-.083.533.533 0 0 0-.333.088.412.412 0 0 0-.145.235 1.74 1.74 0 0 0-.034.38v1.866c-.014.18.025.36.112.524.044.055.104.099.175.127s.149.038.226.029a.478.478 0 0 0 .31-.084.375.375 0 0 0 .13-.227c.02-.124.03-.249.027-.374v-.379h.875v.346c.025.342-.082.682-.303.967-.201.228-.544.343-1.047.343s-.884-.122-1.1-.375zM32.137 14.633c-.221-.239-.332-.588-.332-1.05v-1.617c0-.457.11-.802.332-1.037s.591-.351 1.109-.35c.515 0 .882.117 1.103.35.221.235.333.58.333 1.037v1.617c0 .457-.112.807-.337 1.048s-.591.361-1.1.361c-.509 0-.886-.122-1.109-.36zm1.517-.388a.906.906 0 0 0 .105-.479v-1.98a.88.88 0 0 0-.103-.469c-.044-.057-.106-.101-.179-.129s-.152-.037-.231-.027c-.079-.009-.159 0-.231.028s-.135.072-.18.129a.853.853 0 0 0-.105.469v1.99a.888.888 0 0 0 .105.479c.051.05.114.091.185.119a.612.612 0 0 0 .635-.119v-.009zM35.735 10.626h.942l.708 2.984.725-2.984h.917l.092 4.308h-.678l-.072-2.994-.699 2.994h-.544l-.725-3.005-.067 3.005h-.685l.085-4.308zM40.176 10.626h1.468c.846 0 1.268.408 1.268 1.223 0 .781-.445 1.171-1.335 1.17h-.5v1.915h-.906l.005-4.308zm1.254 1.841a.7.7 0 0 0 .498-.136.693.693 0 0 0 .13-.486 1.327 1.327 0 0 0-.044-.391c-.013-.043-.036-.083-.067-.118s-.07-.065-.114-.087a.94.94 0 0 0-.404-.069h-.352v1.287h.352zM44.218 10.626h.973l.998 4.308h-.844l-.197-.993h-.868l-.203.993h-.857l.998-4.308zm.832 2.815-.339-1.808-.339 1.808h.678zM46.996 10.626h.634l1.214 2.457v-2.457h.752v4.308h-.603l-1.221-2.565v2.565h-.777l.002-4.308zM51.357 13.291l-1.009-2.659h.85l.616 1.708.578-1.708h.832l-.997 2.659v1.642h-.87v-1.642zM29.892 16.817v.225h-.739v1.75h-.31v-1.75H28.1v-.225h1.792zM32.209 18.793h-.239a.105.105 0 0 1-.067-.019.102.102 0 0 1-.04-.045l-.214-.469h-1.026l-.214.469a.119.119 0 0 1-.033.053.112.112 0 0 1-.067.019h-.239l.906-1.976h.315l.917 1.968zm-1.5-.734h.855l-.362-.804a1.426 1.426 0 0 1-.067-.186 4.03 4.03 0 0 0-.034.105l-.033.083-.359.802zM33.771 18.599a1.018 1.018 0 0 0 .315-.023.961.961 0 0 0 .13-.036c.04-.014.08-.031.121-.048v-.444h-.362c-.009 0-.018-.001-.026-.003s-.016-.007-.023-.012c-.006-.004-.011-.01-.014-.016s-.005-.013-.004-.02v-.152h.703v.757a1.407 1.407 0 0 1-.609.202 2.591 2.591 0 0 1-.264.012 1.41 1.41 0 0 1-.457-.073 1.104 1.104 0 0 1-.362-.206.956.956 0 0 1-.234-.313.99.99 0 0 1-.083-.41.907.907 0 0 1 .316-.726c.103-.089.227-.159.362-.205.155-.05.32-.075.486-.074.084 0 .169.006.252.017a1.21 1.21 0 0 1 .397.128c.056.031.108.065.158.103l-.087.122c-.007.011-.017.021-.029.027s-.027.01-.041.01a.118.118 0 0 1-.056-.016 1.344 1.344 0 0 1-.089-.047.727.727 0 0 0-.121-.053 1.171 1.171 0 0 0-.167-.044 1.362 1.362 0 0 0-.23-.017 1.06 1.06 0 0 0-.35.055.704.704 0 0 0-.435.402.924.924 0 0 0 0 .659.756.756 0 0 0 .446.405c.115.034.237.047.359.039zM36.659 18.567h.989v.225h-1.292v-1.976h.31l-.007 1.75zM38.678 18.792h-.31v-1.976h.31v1.976zM39.83 16.826a.151.151 0 0 1 .047.036l1.324 1.489a.41.41 0 0 1 0-.07v-1.472h.27v1.984h-.156a.14.14 0 0 1-.067-.011.184.184 0 0 1-.049-.038l-1.323-1.488v1.536h-.259v-1.976h.161c.017 0 .035.003.051.009zM43.753 16.817v.217h-1.098v.652h.89v.21h-.89v.674h1.098v.217h-1.417v-1.971h1.417zM11.286 4.616l13.757 3.372v11.818l-13.757-3.371V4.616zm-.882-1.007V17.01l15.52 3.806V7.417L10.404 3.61z"/><path  d="M18.722 27.036 3.2 23.227V9.828l15.522 3.807v13.401z"/><path d="m10.661 4.465 13.578 3.33-5.774 4.987L4.885 9.45l5.776-4.985zm-.257-.856L3.2 9.828l15.522 3.807 7.202-6.219-15.52-3.807zM19.595 26.282l6.329-5.465-6.329-1.553v7.018z"/></symbol><symbol id="Logo" viewBox="0 0 57 32"><path  d="m20.267 3.733 3.738 3.538-6.938-.004v17.166H35.2v-6.564l3.733 3.534V3.732H20.266zm14.769 13.722L24.439 7.423h10.597v10.032zm-3.29 4.468h-11.81V10.378h.835v10.764h10.975v.782zm-9.021 4.797h.365l-.635 1.198v.698h-.331v-.698l-.637-1.198h.366l.436.898.436-.898zm.548 1.895.154-.441h.734l.155.441h.344l-.717-1.896h-.296l-.716 1.896h.342zm.521-1.493.275.786h-.549l.275-.786zm1.737.741a.429.429 0 0 0-.072.241c0 .16.056.29.168.389s.263.148.451.148.349-.051.484-.152l.107.126h.367l-.279-.329a.95.95 0 0 0 .164-.574h-.275a.758.758 0 0 1-.079.348l-.366-.432.129-.094c.091-.066.157-.132.197-.198s.06-.14.06-.219c0-.12-.044-.22-.133-.301s-.201-.122-.339-.122c-.153 0-.274.043-.365.13s-.135.203-.135.352c0 .061.014.124.043.189s.081.144.155.237a1.12 1.12 0 0 0-.283.262zm.855.419a.485.485 0 0 1-.299.107c-.095 0-.17-.027-.227-.082s-.085-.126-.085-.214c0-.102.052-.192.156-.271l.04-.029.414.488zm-.34-.84c-.089-.11-.134-.202-.134-.275 0-.063.018-.116.055-.158s.085-.063.147-.063c.057 0 .105.018.142.053s.056.077.056.126a.235.235 0 0 1-.081.184l-.04.033-.145.099zm3.086 1.03c-.13.113-.303.169-.52.169a.7.7 0 0 1-.666-.413 1.1 1.1 0 0 1-.098-.46v-.177c0-.179.032-.336.095-.473a.713.713 0 0 1 .683-.426c.209 0 .378.057.505.171s.202.274.223.482h-.328c-.016-.136-.056-.234-.12-.294s-.157-.091-.28-.091c-.143 0-.253.053-.331.158s-.115.257-.117.46v.168c0 .205.036.361.109.469s.181.161.323.161c.129 0 .227-.029.292-.087s.106-.155.124-.29h.328a.689.689 0 0 1-.224.474zm1.936-.266c.064-.141.096-.304.096-.49v-.105c-.001-.185-.034-.347-.099-.486a.726.726 0 0 0-.687-.432.757.757 0 0 0-.411.113c-.119.075-.211.183-.277.324s-.098.305-.098.49v.107c.001.181.034.342.099.48s.159.246.279.322a.764.764 0 0 0 .411.112c.155 0 .293-.037.411-.112s.212-.183.276-.323zm-.352-1.071c.08.112.12.273.12.483v.099c0 .214-.04.376-.119.487s-.19.167-.336.167c-.144 0-.257-.057-.339-.171s-.121-.275-.121-.483v-.109c.002-.204.043-.362.122-.473s.192-.168.335-.168c.146 0 .258.056.337.168z"/></symbol><symbol id="smartphone" viewBox="0 0 20 32"><path  d="M17 0H3C1.346 0 0 1.346 0 3v26c0 1.654 1.346 3 3 3h14c1.654 0 3-1.346 3-3V3c0-1.654-1.346-3-3-3zM3 2h14a1 1 0 0 1 1 1v21H2V3a1 1 0 0 1 1-1zm14 28H3a1 1 0 0 1-1-1v-3h16v3a1 1 0 0 1-1 1z"/><path d="M4.707 27.478c.391.365.391.956 0 1.321s-1.024.365-1.414 0c-.391-.365-.391-.956 0-1.321s1.024-.365 1.414 0z"/></symbol><symbol id="twitter" viewBox="0 0 32 32"><path  d="M32 6.078c-1.19.522-2.458.868-3.78 1.036a6.523 6.523 0 0 0 2.886-3.626 13.11 13.11 0 0 1-4.16 1.588A6.574 6.574 0 0 0 22.154 3c-3.632 0-6.556 2.948-6.556 6.562 0 .52.044 1.02.152 1.496-5.454-.266-10.28-2.88-13.522-6.862a6.605 6.605 0 0 0-.898 3.316 6.57 6.57 0 0 0 2.914 5.452 6.479 6.479 0 0 1-2.964-.808v.072c0 3.188 2.274 5.836 5.256 6.446a6.548 6.548 0 0 1-1.72.216 5.8 5.8 0 0 1-1.242-.112c.85 2.598 3.262 4.508 6.13 4.57a13.182 13.182 0 0 1-8.134 2.798c-.538 0-1.054-.024-1.57-.09A18.469 18.469 0 0 0 10.064 29c12.072 0 18.672-10 18.672-18.668 0-.29-.01-.57-.024-.848A13.087 13.087 0 0 0 32 6.078z"/></symbol></defs></svg>